<svg xmlns="http://www.w3.org/2000/svg" viewBox="0 0 1745.89 324.24"><defs><style>.cls-1{fill:#fff;}</style></defs><g id="Layer_2" data-name="Layer 2"><g id="_front-x-logo-avatar"><path class="cls-1" d="M9.09,104.06H157.23a9.09,9.09,0,0,1,9.09,9.1v20a9.09,9.09,0,0,1-9.09,9.09H62a9.1,9.1,0,0,0-9.09,9.1v45.45A9.09,9.09,0,0,0,62,205.88h74.55a9.09,9.09,0,0,1,9.1,9.1v20a9.09,9.09,0,0,1-9.1,9.09H62a9.09,9.09,0,0,0-9.09,9.1v58.17a9.1,9.1,0,0,1-9.1,9.1H9.09A9.09,9.09,0,0,1,0,311.33V113.16A9.09,9.09,0,0,1,9.09,104.06ZM407.67,245.17l28.06,62.43a9.1,9.1,0,0,1-8.3,12.83H389.68a9.09,9.09,0,0,1-8.39-5.59l-25.61-61.37a9.09,9.09,0,0,0-8.39-5.59H311.47a9.09,9.09,0,0,0-9.09,9.1v54.35a9.1,9.1,0,0,1-9.1,9.1h-34.7a9.09,9.09,0,0,1-9.09-9.1V113.16a9.09,9.09,0,0,1,9.09-9.1h92.08c59.4,0,92,22,92,71.28,0,26.89-11.78,45.81-31.43,58.38A9.14,9.14,0,0,0,407.67,245.17ZM388.6,176c0-20.68-12.64-34.36-37.94-34.36H311.47a9.09,9.09,0,0,0-9.09,9.09v50.54a9.09,9.09,0,0,0,9.09,9.1h40C377.87,210.34,388.6,195.06,388.6,176Zm349.14,37.55c0,73.18-26.06,110.72-108.07,110.72S521.59,286.7,521.59,213.52s26.06-113.28,108.08-113.28S737.74,140.34,737.74,213.52Zm-54.42,0c0-50-10.73-75.09-53.65-75.09S576,163.56,576,213.52s10.73,72.54,53.66,72.54S683.32,263.47,683.32,213.52Zm301.61,68.73H981.1L920.39,110.13a9.11,9.11,0,0,0-8.58-6.07H838.05a9.1,9.1,0,0,0-9.1,9.1V311.33a9.1,9.1,0,0,0,9.1,9.1h34.7a9.09,9.09,0,0,0,9.09-9.1V142.24h3.83l63,172.22a9.1,9.1,0,0,0,8.54,6h71.54a9.1,9.1,0,0,0,9.1-9.1V113.16a9.1,9.1,0,0,0-9.1-9.1H994a9.09,9.09,0,0,0-9.09,9.1Zm132.23-169.09v20.63a9.09,9.09,0,0,0,9.09,9.09h51.56a9.09,9.09,0,0,1,9.09,9.1V311.33a9.1,9.1,0,0,0,9.1,9.1h34.7a9.09,9.09,0,0,0,9.09-9.1V152a9.09,9.09,0,0,1,9.09-9.1h50.8a9.09,9.09,0,0,0,9.09-9.09V113.16a9.09,9.09,0,0,0-9.09-9.1H1126.25A9.09,9.09,0,0,0,1117.16,113.16Z"/><path class="cls-1" d="M1457.2,324.24H1356.34a20.44,20.44,0,0,1-14.46-34.89l127.43-127.43-25.46-25.46,28-28,39,39a20.44,20.44,0,0,1,0,28.91L1402.64,284.62h46.61L1523,210.85l.24-.23a122.72,122.72,0,0,1,43.12-24.7c15.5-5,30.85-6,45.65-3.21,18.32,3.53,35.28,13,50.41,28.11l77.44,77.44a20.44,20.44,0,0,1-14.46,34.89H1624.57a20.29,20.29,0,0,1-14.45-6l-68.69-68.69-69.78,69.78A20.29,20.29,0,0,1,1457.2,324.24Zm175.32-40.71h46.61l-44.69-44.69c-16.89-16.88-35.19-21.85-56-15.2-1.48.48-2.92,1-4.32,1.54Z"/><path class="cls-1" d="M1471.87,215.8l-28-28,25.46-25.46L1341.88,34.9A20.44,20.44,0,0,1,1356.34,0H1457.2a20.3,20.3,0,0,1,14.45,6l69.78,69.78,68.69-68.69a20.3,20.3,0,0,1,14.45-6h100.86A20.44,20.44,0,0,1,1739.89,36l-77.44,77.43c-15.13,15.13-32.09,24.59-50.41,28.11-14.79,2.85-30.15,1.77-45.65-3.2a122.66,122.66,0,0,1-43.12-24.71l-.48-.46-73.54-73.54h-46.61l108.25,108.25a20.47,20.47,0,0,1,0,28.91Zm102.3-116.74c1.73.68,3.53,1.31,5.37,1.87,20.34,6.15,38.3,1.08,54.9-15.52l44.69-44.7h-46.61Z"/></g></g></svg>